<svg xmlns="http://www.w3.org/2000/svg" width="18" height="16" viewBox="0 0 18 16"><defs><style>.a{fill:#9e9e9e;}</style></defs><g transform="translate(-1056 -33)"><path class="a" d="M16.5,0H1.5A1.5,1.5,0,0,0,0,1.5v10A1.5,1.5,0,0,0,1.5,13h6L7,14.5H4.75a.75.75,0,0,0,0,1.5h8.5a.75.75,0,0,0,0-1.5H11L10.5,13h6A1.5,1.5,0,0,0,18,11.5V1.5A1.5,1.5,0,0,0,16.5,0ZM16,11H2V2H16Z" transform="translate(1056 33)"/><path class="a" d="M3.061-2.429l2.888,5.6H0Z" transform="translate(1065.675 36.552) rotate(90)"/></g></svg>