<svg xmlns="http://www.w3.org/2000/svg" xmlns:xlink="http://www.w3.org/1999/xlink" width="56" height="56" viewBox="8 8 40 40">
  <defs>
    <linearGradient id="linear-gradient" y1="0.844" x2="1.093" y2="0.263" gradientUnits="objectBoundingBox">
      <stop offset="0" stop-color="#02d9de"/>
      <stop offset="1" stop-color="#9659f2"/>
    </linearGradient>
  </defs>
  <g id="组_1" data-name="组 1" transform="translate(-2195 -4536)">
    <circle id="椭圆_1" data-name="椭圆 1" cx="28" cy="28" r="28" transform="translate(2195 4536)" fill="#fff"/>
    <path id="联合_1" data-name="联合 1" d="M19.662,20.521l-8.24-8.24-8.241,8.24A1.5,1.5,0,0,1,1.06,18.4L9.3,10.159,2.324,3.182A1.5,1.5,0,1,1,4.445,1.061l6.977,6.977L18.4,1.061a1.5,1.5,0,0,1,2.121,2.121l-6.977,6.977,8.24,8.24a1.5,1.5,0,1,1-2.121,2.121Z" transform="translate(2211.454 4553.202)" fill="url(#linear-gradient)"/>
  </g>
</svg>
