<svg xmlns="http://www.w3.org/2000/svg" width="18.004" height="16" viewBox="0 0 18.004 16"><defs><style>.a{fill:#9e9e9e;}</style></defs><path class="a" d="M12.584,2.7,15.4,5.517a.306.306,0,0,1,0,.431L8.577,12.774l-2.9.322A.608.608,0,0,1,5,12.424l.322-2.9L12.152,2.7a.306.306,0,0,1,.431,0Zm5.063-.716L16.122.456a1.222,1.222,0,0,0-1.725,0L13.29,1.563a.306.306,0,0,0,0,.431l2.819,2.819a.306.306,0,0,0,.431,0l1.106-1.106a1.222,1.222,0,0,0,0-1.725ZM12,10.918V14.1H2V4.1H9.183a.384.384,0,0,0,.266-.109l1.25-1.25a.375.375,0,0,0-.266-.641H1.5A1.5,1.5,0,0,0,0,3.6v11a1.5,1.5,0,0,0,1.5,1.5h11A1.5,1.5,0,0,0,14,14.6V9.667a.376.376,0,0,0-.641-.266l-1.25,1.25A.384.384,0,0,0,12,10.918Z" transform="translate(0 -0.1)"/></svg>