<svg xmlns="http://www.w3.org/2000/svg" width="15" height="15" viewBox="0 0 15 15"><defs><style>.a{fill:none;}.b,.c{stroke:none;}.c{fill:#fff;}</style></defs><g class="a"><path class="b" d="M7.5,0C9.23,0,15,3.358,15,7.5v5.625A1.875,1.875,0,0,1,13.125,15H1.875A1.875,1.875,0,0,1,0,13.125V7.5C0,3.358,5.77,0,7.5,0Z"/><path class="c" d="M 7.5 2.003450393676758 C 7.082249641418457 2.070024490356445 5.659511566162109 2.653921127319336 4.246419906616211 3.845319747924805 C 2.818790435791016 5.048979759216309 2 6.381059646606445 2 7.5 L 2 13 L 13 13 L 13 7.5 C 13 6.381059646606445 12.18120956420898 5.048979759216309 10.75358009338379 3.845319747924805 C 9.340488433837891 2.653921127319336 7.917750358581543 2.070024490356445 7.5 2.003450393676758 M 7.5 0 C 9.230140686035156 0 15 3.35785961151123 15 7.5 L 15 13.125 C 15 14.16053009033203 14.16053009033203 15 13.125 15 L 1.875 15 C 0.8394699096679688 15 0 14.16053009033203 0 13.125 L 0 7.5 C 0 3.35785961151123 5.76986026763916 0 7.5 0 Z"/></g></svg>