<svg xmlns="http://www.w3.org/2000/svg" width="20.001" height="15" viewBox="0 0 20.001 15"><defs><style>.a{fill:#9e9e9e;}</style></defs><path class="a" d="M44.4,164.7c-.377-.061-.385-1.117-.385-1.117a5.4,5.4,0,0,0,1.347-2.618c.648,0,1.049-1.6.4-2.157.027-.591.834-4.641-3.249-4.641s-3.278,4.051-3.251,4.641c-.649.561-.248,2.157.4,2.157a5.41,5.41,0,0,0,1.348,2.618s-.009,1.055-.385,1.117c-1.212.2-5.742,2.233-5.742,4.466H50.142c0-2.233-4.53-4.27-5.742-4.466m5.069-.26c-.355-.057-.363-1.053-.363-1.053a5.094,5.094,0,0,0,1.271-2.469c.612,0,.989-1.5.378-2.034.026-.558.786-4.377-3.065-4.377a4.507,4.507,0,0,0-1.025.108c1.671,1.122,1.184,3.648,1.162,4.106.649.561.248,2.159-.4,2.159a5.317,5.317,0,0,1-1.2,2.457c-.02.053-.045.174-.045.174a3.172,3.172,0,0,0-.023.647c.055.226.149.431.308.456,1.135.185,5.173,1.98,5.688,4.04h2.731c0-2.107-4.271-4.027-5.414-4.213" transform="translate(-34.883 -154.171)"/></svg>